<?xml version="1.0" encoding="UTF-8" standalone="no"?>
<!-- Created with Inkscape (http://www.inkscape.org/) -->

<svg
   xmlns:dc="http://purl.org/dc/elements/1.1/"
   xmlns:cc="http://creativecommons.org/ns#"
   xmlns:rdf="http://www.w3.org/1999/02/22-rdf-syntax-ns#"
   xmlns:svg="http://www.w3.org/2000/svg"
   xmlns="http://www.w3.org/2000/svg"
   xmlns:sodipodi="http://sodipodi.sourceforge.net/DTD/sodipodi-0.dtd"
   xmlns:inkscape="http://www.inkscape.org/namespaces/inkscape"
   width="728"
   height="90"
   id="svg3520"
   version="1.1"
   inkscape:version="0.91 r13725"
   viewBox="0 0 728 90"
   sodipodi:docname="banner.svg">
  <defs
     id="defs3522" />
  <sodipodi:namedview
     id="base"
     pagecolor="#ffffff"
     bordercolor="#666666"
     borderopacity="1.0"
     inkscape:pageopacity="0.0"
     inkscape:pageshadow="2"
     inkscape:zoom="1.5"
     inkscape:cx="334.61582"
     inkscape:cy="1.2586344"
     inkscape:document-units="px"
     inkscape:current-layer="layer1"
     showgrid="false"
     inkscape:window-width="1920"
     inkscape:window-height="1021"
     inkscape:window-x="-4"
     inkscape:window-y="0"
     inkscape:window-maximized="1" />
  <metadata
     id="metadata3525">
    <rdf:RDF>
      <cc:Work
         rdf:about="">
        <dc:format>image/svg+xml</dc:format>
        <dc:type
           rdf:resource="http://purl.org/dc/dcmitype/StillImage" />
        <dc:title></dc:title>
      </cc:Work>
    </rdf:RDF>
  </metadata>
  <g
     id="layer1"
     inkscape:label="Layer 1"
     inkscape:groupmode="layer">
    <path
       style="fill:none;fill-rule:evenodd;stroke:#000000;stroke-width:1px;stroke-linecap:butt;stroke-linejoin:miter;stroke-opacity:1"
       d="m 81.333333,56 c 3.22043,-8.051074 0.41999,0.146729 1.333334,-5.333333 0.115528,-0.693167 0.551139,-1.306833 0.666666,-2 0.1096,-0.657596 -0.09428,-1.340034 0,-2 C 83.46291,45.75963 83.898818,44.910642 84,44 c 0.122702,-1.104315 0,-2.222222 0,-3.333333 0,-2 0,-4 0,-6 0,-2 0,-4 0,-6 0,-0.444445 0.08716,-0.89752 0,-1.333334 -0.137816,-0.689082 -0.49623,-1.318253 -0.666667,-2 -0.142011,-0.568047 0,-1.412228 0,-2 0,-0.222222 0,-0.444444 0,-0.666666 0,-0.222223 -0.09938,-0.467905 0,-0.666667 0.490469,-0.980936 1.046024,-0.666667 2,-0.666667 1.555556,0 3.111111,0 4.666667,0 0.666667,0 1.333333,0 2,0 0.444444,0 0.920677,-0.165062 1.333333,0 0.743927,0.297571 1.312948,0.921102 2,1.333334 0.426092,0.255655 0.87197,0.482121 1.333334,0.666666 0.652467,0.260987 1.397415,0.305116 2,0.666667 0.538968,0.323381 0.842526,0.940688 1.333333,1.333333 0.10677,0.08542 3.11196,2.002545 3.33333,2.666667 0.14055,0.421637 0.1078,0.902159 0,1.333333 -0.12051,0.482068 -0.44444,0.888889 -0.66666,1.333334 C 102.44444,31.111111 102.27563,31.586551 102,32 c -0.34865,0.522976 -0.95621,0.830502 -1.33333,1.333333 -0.48074,0.640987 -0.766779,1.433443 -1.333337,2 -1.205049,1.20505 -2.488132,0.414689 -4,0.666667 -5.192569,0.865428 2.259821,0.666667 -2.666666,0.666667 -0.666667,0 -1.333334,0 -2,0 -0.444445,0 -0.902159,-0.107794 -1.333334,0 -0.482067,0.120517 -0.861928,0.509531 -1.333333,0.666666 -0.210818,0.07027 -0.467905,-0.09938 -0.666667,0 -0.43366,0.216831 -0.942538,0.781591 -0.666666,1.333334 0.140545,0.281091 0.444444,0.444444 0.666666,0.666666 2.284113,2.284113 0.297272,0.578363 2.666667,2 0.687052,0.412232 1.312948,0.921102 2,1.333334 0.426092,0.255655 0.907242,0.411011 1.333333,0.666666 0.687053,0.412232 1.333334,0.888889 2,1.333334 0.666667,0.444444 1.374342,0.832806 2,1.333333 0.490807,0.392645 0.810357,0.984682 1.333334,1.333333 4.421633,2.947758 1.497853,0.164524 3.333333,2 0.22222,0.222223 0.56729,0.368525 0.66667,0.666667 0.14054,0.421637 0,0.888889 0,1.333333 0,0.444445 0,0.888889 0,1.333334 0,0.438071 0.12537,1.623867 0,2 -0.61309,1.839255 -0.71549,1.349605 -2.66667,2 -0.666667,0.222222 -1.333333,0.444444 -2,0.666666 -4.441518,1.480506 0.724365,-0.0072 -4.666667,0.666667 -0.90917,0.113646 -1.754968,0.575497 -2.666666,0.666667 -2.432313,0.243231 -4.90384,-0.269944 -7.333334,0 -0.910641,0.101182 -1.762887,0.516036 -2.666666,0.666666 -0.438398,0.07307 -0.888889,0 -1.333334,0 -0.888889,0 -1.777777,0 -2.666666,0 -0.348614,0 -2.491373,0.08765 -2.666667,0 -0.281091,-0.140545 -0.444444,-0.444444 -0.666667,-0.666666"
       id="path3546"
       inkscape:connector-curvature="0" />
    <path
       style="fill:none;fill-rule:evenodd;stroke:#000000;stroke-width:1px;stroke-linecap:butt;stroke-linejoin:miter;stroke-opacity:1"
       d="m 132,55.333333 c 0.88889,-0.888889 1.936,-1.643739 2.66667,-2.666666 0.40845,-0.571834 0.35239,-1.371461 0.66666,-2 0.35833,-0.716645 0.97501,-1.283355 1.33334,-2 0.31427,-0.62854 0.38985,-1.354091 0.66666,-2 0.39148,-0.913454 0.94186,-1.753213 1.33334,-2.666667 0.74349,-1.734814 0.93413,-3.734539 2,-5.333333 0.17432,-0.261489 0.49234,-0.405179 0.66666,-0.666667 0.55127,-0.826898 0.78207,-1.839768 1.33334,-2.666667 C 143.01532,34.810357 143.65135,34.522976 144,34 c 0.27563,-0.413449 0.39103,-0.919884 0.66667,-1.333333 0.20235,-0.303534 2.4512,-2.558935 2.66666,-2.666667 0.19877,-0.09938 0.44445,0 0.66667,0 0.22222,0 0.45585,-0.07027 0.66667,0 2.40999,0.803333 4.62416,4.539158 5.33333,6.666667 0.14055,0.421637 -0.0731,0.894936 0,1.333333 0.15063,0.903779 0.56548,1.756025 0.66667,2.666667 0.1227,1.104315 -0.18267,2.23734 0,3.333333 0.26596,1.59579 1.10454,3.065124 1.33333,4.666667 1.39562,9.769363 -1.80035,-0.690422 0.66667,10 0.26909,1.166057 0.92437,2.208679 1.33333,3.333333 0.48031,1.320839 0.92948,2.653817 1.33333,4 0.22223,0.888889 0.44445,1.777778 0.66667,2.666667 0,0.666666 -0.16169,1.353238 0,2 0.0762,0.304886 0.66667,0.352397 0.66667,0.666666 0,0.222223 -0.44445,0 -0.66667,0 -0.22222,0 -0.44444,0 -0.66667,0"
       id="path3548"
       inkscape:connector-curvature="0" />
    <path
       style="fill:none;fill-rule:evenodd;stroke:#000000;stroke-width:1px;stroke-linecap:butt;stroke-linejoin:miter;stroke-opacity:1"
       d="M 137.33333,50.666667 C 138.22222,50.444444 139.10155,50.179691 140,50 c 0.43581,-0.08716 0.88889,0 1.33333,0 0.88889,0 1.77778,0 2.66667,0 2.88889,0 5.77778,0 8.66667,0"
       id="path3550"
       inkscape:connector-curvature="0" />
    <path
       style="fill:none;fill-rule:evenodd;stroke:#000000;stroke-width:1px;stroke-linecap:butt;stroke-linejoin:miter;stroke-opacity:1"
       d="m 193.33333,64.666667 c 0.0793,-2.693422 2.20138,-4.774244 2.66667,-7.333334 1.31055,-7.208035 -1.54783,-0.802892 0.66667,-8 0.49771,-1.617554 1.46481,-3.06112 2,-4.666666 0.16263,-0.48789 1.86778,-7.212332 2,-8.666667 0.12071,-1.327858 0,-2.666667 0,-4 0,-1.333333 0,-2.666667 0,-4 0,-0.222222 0,-0.444444 0,-0.666667 0,-0.222222 -0.0994,-0.467905 0,-0.666666 0.44444,-0.888889 0.88889,-0.888889 1.33333,0 0.31427,0.628539 0.27686,1.415294 0.66667,2 C 206.93596,35.07061 202.51018,25.275459 206,34 c 0.44444,1.111111 0.92437,2.208679 1.33333,3.333333 0.48031,1.320839 0.66701,2.762536 1.33334,4 0.9063,1.683133 2.62337,2.891765 3.33333,4.666667 0.66539,1.663471 0.10011,3.63366 0.66667,5.333333 0.56655,1.699673 1.91587,3.039955 2.66666,4.666667 0.58897,1.276098 0.79278,2.702655 1.33334,4 0.57335,1.376042 1.44636,2.615909 2,4 2.69742,6.743553 -1.26973,-0.359637 2,4 0.004,0.0048 0.82356,2 1.33333,2 0.22222,0 -0.0539,-0.451079 0,-0.666667 0.17044,-0.681746 0.52885,-1.310918 0.66667,-2 0.0872,-0.435813 -0.0872,-0.897519 0,-1.333333 0.13781,-0.689082 0.55114,-1.306833 0.66666,-2 0.1096,-0.657596 0,-1.333333 0,-2 0.44445,-0.666667 1.07996,-1.239883 1.33334,-2 0.21082,-0.632456 -0.0827,-1.338481 0,-2 0.50156,-4.01248 1.04409,-3.539124 2,-8 0.32924,-1.536468 0.55471,-3.099312 0.66666,-4.666667 0.11083,-1.551602 -0.32593,-3.14564 0,-4.666666 0.35461,-1.654827 1.53507,-3.03939 2,-4.666667 0.43169,-1.510889 0.31334,-3.135559 0.66667,-4.666667 0.35476,-1.537299 1.96681,-5.758647 2.66667,-7.333333 0.40362,-0.908153 1.0923,-1.702531 1.33333,-2.666667 0.21559,-0.862349 0,-1.777777 0,-2.666666 0,-0.222223 0,-0.888889 0,-0.666667 0,2.660317 0.26667,0.438095 -2,4 -1.84318,2.896422 -2.59573,4.524787 -4,7.333333"
       id="path3552"
       inkscape:connector-curvature="0" />
    <path
       style="fill:none;fill-rule:evenodd;stroke:#000000;stroke-width:1px;stroke-linecap:butt;stroke-linejoin:miter;stroke-opacity:1"
       d="m 261.33333,68 c 2.48074,-3.307654 1.38367,-1.742166 3.33334,-4.666667 0.44444,-0.666666 0.97501,-1.283355 1.33333,-2 1.29733,-2.594653 0.0517,-1.676253 1.33333,-4.666666 0.31562,-0.73645 1.01772,-1.26355 1.33334,-2 0.36092,-0.842163 0.30574,-1.824504 0.66666,-2.666667 0.31562,-0.73645 0.97501,-1.283355 1.33334,-2 2.01325,-4.026509 -0.0961,-0.282262 0.66666,-3.333333 0.12052,-0.482068 0.50954,-0.861929 0.66667,-1.333334 0.28974,-0.869227 0.41495,-1.785674 0.66667,-2.666666 0.19305,-0.675691 0.52885,-1.310919 0.66666,-2 0.0872,-0.435814 -0.14054,-0.911697 0,-1.333334 0.0994,-0.298142 0.52612,-0.385575 0.66667,-0.666666 0.0875,-0.175071 -0.28093,-1.649199 0.66667,-1.333334 1.41789,0.472631 1.59558,2.254899 2,3.333334 0.42019,1.120508 0.98946,2.187099 1.33333,3.333333 0.3256,1.085328 0.44444,2.222222 0.66667,3.333333 0.66666,1.333334 1.49056,2.599039 2,4 0.38723,1.064895 0.36852,2.240145 0.66666,3.333334 0.3698,1.355933 0.96354,2.644066 1.33334,4 0.29814,1.093188 0.36852,2.240144 0.66666,3.333333 0.3698,1.355934 0.88889,2.666667 1.33334,4 1.6476,4.942809 0.70479,2.742921 2.66666,6.666667 0.44445,0.888889 0.94186,1.753213 1.33334,2.666666 0.27682,0.64591 0.35239,1.371461 0.66666,2 0.14055,0.281092 0.44445,0.444445 0.66667,0.666667 0.22222,0.222222 0.44444,0.444444 0.66667,0.666667 0.22222,0.222222 0.44444,0.888889 0.66666,0.666666 C 292.46152,78.205147 291.797,77.218012 292,76 c 0.15063,-0.903779 0.53709,-1.75963 0.66667,-2.666667 0.0943,-0.659966 -0.21082,-1.367544 0,-2 0.25337,-0.760117 1.07996,-1.239883 1.33333,-2 0.42745,-1.282359 0.311,-2.695904 0.66667,-4 C 294.98154,64.178797 295.68513,63.154536 296,62 c 0.35566,-1.304095 0.311,-2.695905 0.66667,-4 1.04843,-3.844268 1.90252,-3.130546 2.66666,-7.333333 0.19877,-1.093189 -0.11056,-2.227737 0,-3.333334 C 299.44608,46.205841 299.89741,45.128462 300,44 c 0.12071,-1.327858 -0.23851,-2.688173 0,-4 0.21407,-1.1774 1.01846,-2.178797 1.33333,-3.333333 0.35567,-1.304096 0.31101,-2.695905 0.66667,-4 0.31487,-1.154536 0.9549,-2.198041 1.33333,-3.333334 0.28975,-0.869227 0.34495,-1.808759 0.66667,-2.666666 0.34895,-0.930532 1.01906,-1.723858 1.33333,-2.666667 0.0994,-0.298142 -0.44444,0.888889 -0.66666,0.666667 -0.22223,-0.222223 0.44444,-0.444445 0.66666,-0.666667"
       id="path3554"
       inkscape:connector-curvature="0" />
    <path
       style="fill:none;fill-rule:evenodd;stroke:#000000;stroke-width:1px;stroke-linecap:butt;stroke-linejoin:miter;stroke-opacity:1"
       d="m 336.66667,32.666667 c 0.77446,3.097841 0.66666,1.750421 0.66666,4 0,0.444444 0.19877,0.93581 0,1.333333 -0.56218,1.124365 -2.0199,1.588731 -2.66666,2.666667 -0.7231,1.205169 -0.55373,2.830589 -1.33334,4 -5.41885,8.128282 1.33089,-5.326817 -2.66666,5.333333 -0.28134,0.750218 -0.92111,1.312948 -1.33334,2 -0.27733,0.462222 -1.91921,3.596053 -2,4 -0.14079,0.703992 0,3.702538 0,4.666667 0,0.300238 -0.10144,1.79711 0,2 0.41891,0.837814 2.90833,2.347915 3.33334,2.666666 0.25141,0.188562 0.40518,0.492342 0.66666,0.666667 0.41345,0.275633 0.88889,0.444444 1.33334,0.666667 1.84545,0.922725 3.93872,1.74234 6,2 1.54354,0.192943 3.11111,0 4.66666,0 0.88889,0 1.78465,0.110253 2.66667,0 0.90917,-0.113647 1.77778,-0.444445 2.66667,-0.666667 0.88889,-0.222222 1.80876,-0.344951 2.66666,-0.666667 C 352.26386,66.984384 353.05719,66.31427 354,66 c 0.42164,-0.140546 0.90216,0.107794 1.33333,0 0.48207,-0.120517 0.86193,-0.509532 1.33334,-0.666667 C 357.06509,65.200526 358,65.678285 358,64.666667 358,64.352397 357.58475,64.188562 357.33333,64 c -2.06776,-1.550823 -1.69327,-1.23109 -4,-2"
       id="path3556"
       inkscape:connector-curvature="0" />
    <path
       style="fill:none;fill-rule:evenodd;stroke:#000000;stroke-width:1px;stroke-linecap:butt;stroke-linejoin:miter;stroke-opacity:1"
       d="m 337.33333,52 c 1.19823,-1.323573 3.91465,-0.311995 5.33334,-0.666667 0.48206,-0.120517 0.85126,-0.546149 1.33333,-0.666666 0.43117,-0.107794 0.89494,0.07307 1.33333,0 6.48356,-1.620891 -1.11591,0.04992 5.33334,-0.666667 1.12618,-0.125132 2.20715,-0.541535 3.33333,-0.666667 0.88345,-0.09816 1.78987,0.146133 2.66667,0 0.49014,-0.08169 0.85126,-0.546149 1.33333,-0.666666 0.69059,-0.172649 1.90223,0 2.66667,0"
       id="path3558"
       inkscape:connector-curvature="0" />
    <path
       style="fill:none;fill-rule:evenodd;stroke:#000000;stroke-width:1px;stroke-linecap:butt;stroke-linejoin:miter;stroke-opacity:1"
       d="m 344.66667,39.333333 c 9.55555,0 19.11111,0 28.66666,0 2,0 4.00509,0.142494 6,0 1.13024,-0.08073 2.20715,-0.541535 3.33334,-0.666666 0.88345,-0.09816 1.78987,0.146132 2.66666,0 C 389.92962,37.900619 384.79942,38 387.33333,38"
       id="path3560"
       inkscape:connector-curvature="0" />
    <path
       style="fill:none;fill-rule:evenodd;stroke:#000000;stroke-width:1px;stroke-linecap:butt;stroke-linejoin:miter;stroke-opacity:1"
       d="m 410,37.333333 c 0,2.444445 0,4.888889 0,7.333334 0,0.666666 0.1096,1.342404 0,2 -0.11553,0.693167 -0.55114,1.306833 -0.66667,2 -0.1096,0.657596 0,1.333333 0,2 -0.22222,0.666666 -0.52885,1.310918 -0.66666,2 -0.0872,0.435813 0,0.888889 0,1.333333 0,1.555556 0,3.111111 0,4.666667 0,0.222222 0,0.444444 0,0.666666 0,0.222223 0.22222,0.666667 0,0.666667 -0.22223,0 0,-0.444444 0,-0.666667 0,-0.666666 0,-1.333333 0,-2 0,-4 0,-8 0,-12 0,-5.111111 0,-10.222222 0,-15.333333 0,-1.555556 0,-3.111111 0,-4.666667 0,-1.111111 0,-2.222222 0,-3.333333 0,-0.666667 -0.13075,-1.34628 0,-2 0.1245,-0.6225 1.3512,-2.342269 2,-2.666667 0.19876,-0.09938 0.44444,0 0.66666,0 0.66667,0 1.35324,-0.16169 2,0 1.6137,0.403424 1.33845,1.003838 2.66667,2 0.79505,0.596285 1.83977,0.782068 2.66667,1.333334 0.57526,0.383511 1.47927,1.479275 2,2 0.66666,0.666666 1.33333,1.333333 2,2 0.22222,0.222222 0.56728,0.368524 0.66666,0.666666 0.14055,0.421637 0,0.888889 0,1.333334 0,0.444444 0,0.888889 0,1.333333 0,1.333333 0,2.666667 0,4 0,1.571151 0.28109,3.24503 -0.66666,4.666667 -1.55187,2.327799 -4.74807,3.529951 -7.33334,4 -1.09319,0.198761 -2.22222,0 -3.33333,0 -3.55556,0 -1.77778,0 -5.33333,0 -0.88889,0 -1.77778,0 -2.66667,0 -0.22222,0 -0.66667,0.222222 -0.66667,0 0,-0.222223 0.48177,-0.123267 0.66667,0 0.52298,0.348651 0.88889,0.888889 1.33333,1.333333 1.55556,1.555556 3.11111,3.111111 4.66667,4.666667 0.44444,0.444444 0.82187,0.968002 1.33333,1.333333 2.10882,1.506299 4.48029,2.608669 6.66667,4 1.35194,0.860325 2.56671,1.950022 4,2.666667 0.81952,0.409757 1.8245,0.305739 2.66667,0.666666 0.73645,0.315622 1.30433,0.93581 2,1.333334 0.86286,0.493066 1.77777,0.888889 2.66666,1.333333 0.44445,0.222222 0.93581,0.368524 1.33334,0.666667 C 431.1695,59.04379 431.49717,59.622876 432,60 c 0.39752,0.298142 0.91988,0.391034 1.33333,0.666667 0.26149,0.174325 0.38558,0.526121 0.66667,0.666666 0.19876,0.09938 0.46791,-0.09938 0.66667,0 C 434.94776,61.473879 435.01906,62 435.33333,62 435.6476,62 435.77778,61.555556 436,61.333333"
       id="path3562"
       inkscape:connector-curvature="0" />
    <path
       style="fill:none;fill-rule:evenodd;stroke:#000000;stroke-width:1px;stroke-linecap:butt;stroke-linejoin:miter;stroke-opacity:1"
       d="m 466.66667,42.666667 c 1.11111,-1.333334 2.22222,-2.666667 3.33333,-4 0.22222,-0.444445 0.35625,-0.945317 0.66667,-1.333334 0.58897,-0.73621 1.33333,-1.333333 2,-2 0.66666,-0.666666 1.2328,-1.452003 2,-2 0.80869,-0.577639 1.75851,-0.929709 2.66666,-1.333333 1.09356,-0.486027 2.15594,-1.119261 3.33334,-1.333333 1.31182,-0.238514 2.67696,0.165379 4,0 C 485.15973,30.605033 485.51275,30.097451 486,30 c 1.08953,-0.217907 2.22222,0 3.33333,0 0.22223,0 0.44445,0 0.66667,0 0.22222,0 0.46791,-0.09938 0.66667,0 0.28109,0.140546 0.44444,0.444444 0.66666,0.666667 0.22223,0.222222 0.56729,0.368524 0.66667,0.666666 0.33333,1 -0.33333,2.333334 0,3.333334 0.25337,0.760117 0.9211,1.312947 1.33333,2 1.11566,1.859428 0.24484,1.227137 2,3.333333 0.60358,0.724286 1.33334,1.333333 2,2 1.55556,1.555556 3.11111,3.111111 4.66667,4.666667 1.89386,1.893864 3.6987,3.895017 6,5.333333 0.59591,0.372445 1.33333,0.444444 2,0.666667 0.66667,0.222222 1.31092,0.52885 2,0.666666 0.87163,0.174326 1.77778,0 2.66667,0 1.55555,0 3.11111,0 4.66666,0 2.35022,0 0.46987,0.31427 2.66667,-1.333333 0.39752,-0.298142 0.90724,-0.411012 1.33333,-0.666667 6.49658,-3.897947 -0.22769,0.170773 2.66667,-2 0.64099,-0.48074 1.37434,-0.832806 2,-1.333333 0.49081,-0.392645 0.88889,-0.888889 1.33333,-1.333333 0.66667,-0.666667 1.39643,-1.275714 2,-2 1.02588,-1.23105 1.66562,-2.748684 2.66667,-4 0.39265,-0.490807 0.95621,-0.830502 1.33333,-1.333334 C 535.63148,38.93581 535.84287,38.471404 536,38 c 0.0613,-0.183824 -0.24379,-1.636819 0.66667,-1.333333 0.59628,0.198761 0.88889,0.888889 1.33333,1.333333 0.44444,0.444444 0.98468,0.810357 1.33333,1.333333 0.27564,0.413449 0.44445,0.888889 0.66667,1.333334 0.22222,0.444444 0.50953,0.861928 0.66667,1.333333 0.0703,0.210818 -0.0994,0.467905 0,0.666667 0.28109,0.562182 0.98468,0.810357 1.33333,1.333333 0.27563,0.413449 0.3153,0.981969 0.66667,1.333333 0.0214,0.02144 1.83831,0 2,0 2.44444,0 4.88889,0 7.33333,0 0.37248,0 2.93992,-0.131139 3.33333,0 1.20663,-0.401819 1.23989,1.079961 2,1.333334 0.42164,0.140545 0.88889,0 1.33334,0 0.44444,0 0.88889,0 1.33333,0 1.77778,0 3.55556,0 5.33333,0 2.22223,0 4.44445,0 6.66667,0 1.11111,0 2.23734,0.182665 3.33333,0 0.69317,-0.115528 1.30684,-0.551139 2,-0.666667 1.096,-0.182666 2.2554,0.269484 3.33334,0 0.48206,-0.120517 0.85126,-0.54615 1.33333,-0.666667 2.7e-4,-6.8e-5 3.19428,-0.06953 3.33333,0 C 586.56581,45.949574 585.7521,47.008417 586,48 c 0.17044,0.681747 0.30512,1.397415 0.66667,2 0.32338,0.538968 0.94068,0.842527 1.33333,1.333333 0.50053,0.625659 0.8119,1.391658 1.33333,2 0.8181,0.954446 1.77778,1.777778 2.66667,2.666667 0.66667,0.666667 1.24575,1.434315 2,2 0.1451,0.108827 3.01242,0 3.33333,0 1.11111,0 2.22223,0 3.33334,0 0.44444,0 0.93581,0.198762 1.33333,0 0.56218,-0.281091 0.88889,-0.888889 1.33333,-1.333333 0.37411,-0.374104 2.94952,-3.103043 3.33334,-3.333334 0.60258,-0.36155 1.39741,-0.305116 2,-0.666666 0.53897,-0.323381 0.88889,-0.888889 1.33333,-1.333334 0.88889,-0.888889 1.77778,-1.777777 2.66667,-2.666666 0.5075,-0.507505 1.19278,-1.333334 2,-1.333334 0.50901,0 1.33094,1.995224 1.33333,2 0.93675,1.873507 2.11541,3.628242 3.33333,5.333334 0.64582,0.904148 1.38367,1.742166 2,2.666666 0.71877,1.078144 1.22254,2.29672 2,3.333334 2.20814,2.944183 1.23222,1.265919 3.33334,2.666666 0.57526,0.383512 1.47927,1.479276 2,2 0.22222,0.222223 0.38557,0.526121 0.66666,0.666667 0.19877,0.09938 0.46791,-0.09938 0.66667,0 1.6476,0.823801 -0.23012,0.666667 1.33333,0.666667 0.22223,0 0.45585,0.07027 0.66667,0 0.48719,-0.162398 1.69489,-0.723119 2,-1.333334 0.0994,-0.198761 -0.12327,-0.481766 0,-0.666666 0.34865,-0.522977 0.95621,-0.830502 1.33333,-1.333334 0.59629,-0.795046 0.73705,-1.87162 1.33334,-2.666666 0.37712,-0.502832 0.88889,-0.888889 1.33333,-1.333334 0.44444,-0.888889 0.78207,-1.839768 1.33333,-2.666666 0.34865,-0.522977 0.88889,-0.888889 1.33334,-1.333334 0.22222,-0.222222 0.52612,-0.385575 0.66666,-0.666666 0.31427,-0.62854 0.40568,-1.347533 0.66667,-2 0.18455,-0.461364 0.44444,-0.888889 0.66667,-1.333334 0.22222,-0.444444 0.39103,-0.919884 0.66666,-1.333333 0.17433,-0.261488 0.47811,-0.415251 0.66667,-0.666667 0.48074,-0.640987 0.76678,-1.433442 1.33333,-2 0.15714,-0.157135 0.48177,-0.123266 0.66667,0 1.52274,1.015161 1.18028,1.300466 2,2.666667 0.41223,0.687052 0.9211,1.312948 1.33333,2 0.25566,0.426092 0.35626,0.945316 0.66667,1.333333 0.58897,0.73621 1.33333,1.333334 2,2 0.44444,0.444445 0.84253,0.940688 1.33333,1.333334 0.62566,0.500526 1.43345,0.766775 2,1.333333 1.8141,1.814094 -1.01917,1.438052 2.66667,2.666667 0.63246,0.210818 1.3424,-0.1096 2,0 0.69317,0.115527 1.30683,0.551138 2,0.666666 0.89508,0.149181 4.32223,0 5.33333,0 0.66667,0 1.33334,0 2,0 0.44445,0 0.92068,0.165063 1.33334,0 0.74392,-0.29757 1.31294,-0.921102 2,-1.333333 0.42609,-0.255655 0.88889,-0.444444 1.33333,-0.666667 0.66667,-0.444444 1.31295,-0.921102 2,-1.333333 0.42609,-0.255655 0.91988,-0.391034 1.33333,-0.666667 0.26149,-0.174325 0.40518,-0.492341 0.66667,-0.666666 0.005,-0.0032 2,-0.823815 2,-1.333334 0,-0.314269 -0.44444,-0.444444 -0.66667,-0.666666"
       id="path3564"
       inkscape:connector-curvature="0" />
    <path
       style="fill:none;fill-rule:evenodd;stroke:#000000;stroke-width:1px;stroke-linecap:butt;stroke-linejoin:miter;stroke-opacity:1"
       d="m 15.333333,44 c 2.441037,-1.033453 5.040732,-1.957773 7.333334,-3.333333 0.512088,-0.307254 2.462528,-1.782299 3.333333,-2 0.431174,-0.107794 0.902159,0.107793 1.333333,0 5.468521,-1.36713 -5.262531,-0.01011 4,-1.333334 0.659967,-0.09428 1.342404,0.1096 2,0 0.693167,-0.115528 1.306833,-0.551139 2,-0.666666 1.095994,-0.182666 2.222223,0 3.333334,0 0.222222,0 0.444444,0 0.666666,0 0.222223,0 0.467905,-0.09938 0.666667,0 0.281091,0.140545 0.444444,0.444444 0.666667,0.666666 0.222222,0.222223 0.444444,0.444445 0.666666,0.666667 1.111111,1.111111 2.222223,2.222222 3.333334,3.333333 0.01998,0.01998 2.397392,2.53203 2.666666,2.666667 0.198762,0.09938 0.444445,0 0.666667,0 0.222222,0 0.444444,0 0.666667,0 1.111111,0 2.222222,0 3.333333,0 0.444444,0 0.911696,0.140546 1.333333,0 3.225665,-1.075222 1.965953,-0.971627 4,-2.666667 0.85358,-0.711316 1.799035,-1.305894 2.666667,-2 0.71618,-0.572944 1.351017,-1.351016 2,-2 0.222222,-0.222222 0.444444,-0.888889 0.666667,-0.666666 C 62.888889,36.888889 62.222222,37.111111 62,37.333333"
       id="path3566"
       inkscape:connector-curvature="0" />
    <path
       style="fill:none;fill-rule:evenodd;stroke:#000000;stroke-width:1px;stroke-linecap:butt;stroke-linejoin:miter;stroke-opacity:1"
       d="m 30.666667,24.666667 c 2.896882,0.01136 4.357204,-0.845269 6.666666,-2 2.78343,-1.391715 -0.141162,0.246263 2.666667,-2 0.625658,-0.500527 1.333333,-0.888889 2,-1.333334 2.261488,-1.507658 1.433442,-0.766775 2.666667,-2 0.222222,-0.222222 0.444444,-0.444444 0.666666,-0.666666 C 45.555556,16.444444 46.222222,16.222222 46,16 c -0.31427,-0.31427 -0.888889,0 -1.333333,0 -2.444445,0 -4.888889,0 -7.333334,0 -0.888889,0 -1.777777,0 -2.666666,0 C 34.444444,16 34,16.222222 34,16 c 0,-0.222222 0.444444,0 0.666667,0 0.666666,0 1.353238,-0.16169 2,0 0.482067,0.120517 0.93581,0.368524 1.333333,0.666667 0.502832,0.377123 0.888889,0.888889 1.333333,1.333333 0.444445,0.444444 1.052242,0.771151 1.333334,1.333333 0.198761,0.397523 -0.140546,0.911697 0,1.333334 C 40.865428,21.262951 41.718909,21.437817 42,22 c 0.09938,0.198762 0,0.444444 0,0.666667 0.222222,0.444444 0.391034,0.919884 0.666667,1.333333 0.182471,0.273707 2,1.863549 2,2 0,0.222222 -0.455848,0.07027 -0.666667,0 C 43.512807,25.837602 42.305107,25.276881 42,24.666667 41.90062,24.467905 42.07027,24.210818 42,24 c -0.157135,-0.471405 -0.54615,-0.851266 -0.666667,-1.333333 -0.107793,-0.431175 0.140546,-0.911697 0,-1.333334 -0.09938,-0.298142 -0.567286,-0.368524 -0.666666,-0.666666 -0.281092,-0.843274 0.174325,-1.79504 0,-2.666667 C 40.52885,17.310918 40.137816,16.689082 40,16 39.912837,15.564186 40,15.111111 40,14.666667 40,12.268426 40.512245,11.178912 38.666667,9.3333333 38.444444,9.1111111 38.281091,8.8072123 38,8.6666666 36.922496,8.1279146 36.24738,10.171907 36,10.666667 35.310321,12.046024 35.078567,12.352397 34.666667,14 c -0.0539,0.215587 0.07027,0.455848 0,0.666667 -0.31427,0.942809 -1.0923,1.702531 -1.333334,2.666666 -0.107793,0.431175 0.140546,0.911697 0,1.333334 -0.09938,0.298142 -0.526121,0.385575 -0.666666,0.666666 -0.09938,0.198762 0,0.444445 0,0.666667 C 32.444444,20.222222 32.140546,20.385575 32,20.666667 31.801238,21.06419 32.165063,21.587344 32,22 c -0.369091,0.922728 -0.888889,1.777778 -1.333333,2.666667 z"
       id="path3568"
       inkscape:connector-curvature="0" />
    <path
       style="fill:none;fill-rule:evenodd;stroke:#000000;stroke-width:1px;stroke-linecap:butt;stroke-linejoin:miter;stroke-opacity:1"
       d="m 638.66667,37.333333 c 0.17665,-0.07066 3.76528,-1.399075 4.66666,-2 0.26149,-0.174325 0.38558,-0.526121 0.66667,-0.666666 1.07036,-0.535182 2.26297,-0.798152 3.33333,-1.333334 0.2811,-0.140545 0.38558,-0.526121 0.66667,-0.666666 0.62854,-0.31427 1.35409,-0.389849 2,-0.666667 0.91345,-0.39148 1.75321,-0.941853 2.66667,-1.333333 1.29182,-0.553637 2.69506,-0.81136 4,-1.333334 1.38409,-0.553636 2.62982,-1.412779 4,-2 2.2471,-0.963043 2.1294,-0.487579 4.66666,-1.333333 0.47141,-0.157135 0.88889,-0.444444 1.33334,-0.666667 0.44444,-0.222222 0.93581,-0.368524 1.33333,-0.666666 0.50283,-0.377124 0.81036,-0.984683 1.33333,-1.333334 0.1849,-0.123266 0.88889,0 0.66667,0 -1.01366,0 -2.34446,0.164813 -3.33333,0 -1.1177,-0.186283 -2.20584,-0.553917 -3.33334,-0.666666 -1.10559,-0.11056 -2.24014,0.198761 -3.33333,0 -1.38279,-0.251416 -2.60867,-1.134572 -4,-1.333334 -13.42121,-1.917316 1.54206,1.750087 -9.33333,-0.666666 -0.686,-0.152444 -1.30434,-0.567286 -2,-0.666667 -1.09995,-0.157135 -2.22223,0 -3.33334,0 -0.22222,0 -0.44444,0 -0.66666,0 -0.22223,0 -0.56729,-0.198762 -0.66667,0 -0.5707,1.1414 0.81719,3.634383 1.33333,4.666667 0.22223,0.444444 0.36853,0.93581 0.66667,1.333333 0.37712,0.502831 1.0999,0.749749 1.33333,1.333333 0.2476,0.618985 -0.16169,1.353239 0,2 0.0762,0.304887 0.49234,0.405179 0.66667,0.666667 0.27563,0.413449 0.39103,0.919884 0.66667,1.333333 0.51282,0.769231 1.48718,1.23077 2,2 0.12326,0.1849 -0.0703,0.455848 0,0.666667 0.16239,0.487193 0.72312,1.694893 1.33333,2 0.19876,0.09938 0.45585,-0.07027 0.66667,0 0.4714,0.157135 0.85126,0.54615 1.33333,0.666667 0.43117,0.107793 0.9117,-0.140546 1.33333,0 0.19527,0.06509 0.79685,1.203158 1.33334,0.666666 C 654.19963,35.800375 652.78989,35.57978 652,34 c -0.31427,-0.628539 -0.55114,-1.306833 -0.66667,-2 -0.1096,-0.657596 0,-1.333333 0,-2 0,-1.111111 0,-2.222222 0,-3.333333 0,-0.444445 -0.0872,-0.89752 0,-1.333334 0.13782,-0.689082 0.49623,-1.318253 0.66667,-2 0.0539,-0.215587 0,-0.444444 0,-0.666666 0,-0.666667 0,-1.333334 0,-2 0,-2 0,-4 0,-6 C 652,14.129714 652.35328,12 651.33333,12 c -0.31427,0 -0.52612,0.385575 -0.66666,0.666667 -0.31427,0.628539 -0.49623,1.318253 -0.66667,2 -0.0539,0.215587 0.12327,0.481766 0,0.666666 -3.32217,3.322166 -0.68573,0.05719 -1.33333,2 -0.15714,0.471405 -0.44445,0.888889 -0.66667,1.333334 -0.22222,0.444444 -0.50953,0.861928 -0.66667,1.333333 -3.07277,9.218329 2.09145,-4.213373 -2,5.333333 -0.27681,0.64591 -0.35239,1.371461 -0.66666,2 -0.35833,0.716645 -0.92111,1.312948 -1.33334,2 -1.55106,2.585099 0.45723,0.05703 -2,3.333334 C 640.95621,33.169498 640.28109,33.437817 640,34 c -0.0994,0.198762 0,0.444444 0,0.666667 0,0.222222 0,0.444444 0,0.666666"
       id="path3570"
       inkscape:connector-curvature="0" />
  </g>
</svg>
